<svg xmlns="http://www.w3.org/2000/svg" xmlns:xlink="http://www.w3.org/1999/xlink" viewBox="0 0 1382.41 1392.5"><defs><style>.cls-1{fill:url(#Névtelen_színátmenet_172);}.cls-2{fill:#1d1d1b;}.cls-3,.cls-4,.cls-5{stroke:#1d1d1b;stroke-miterlimit:10;}.cls-3{fill:url(#Névtelen_színátmenet_16);}.cls-4{fill:#6f6f6e;}.cls-5{fill:url(#Névtelen_színátmenet_17);}.cls-6{fill:#4f4747;}</style><radialGradient id="Névtelen_színátmenet_172" cx="691.36" cy="696.37" r="611.48" gradientUnits="userSpaceOnUse"><stop offset="0.6" stop-color="#161412" stop-opacity="0"/><stop offset="0.65" stop-color="#161412" stop-opacity="0"/><stop offset="0.72" stop-color="#161412" stop-opacity="0"/><stop offset="0.88" stop-color="#161412" stop-opacity="0.65"/><stop offset="0.9" stop-color="#161412" stop-opacity="0.74"/><stop offset="1" stop-color="#161412" stop-opacity="0.95"/></radialGradient><linearGradient id="Névtelen_színátmenet_16" x1="548.37" y1="553.75" x2="834.36" y2="553.75" gradientUnits="userSpaceOnUse"><stop offset="0.32" stop-color="#6f6f6e"/><stop offset="0.75" stop-color="#bd4741"/><stop offset="1" stop-color="#e5332a"/></linearGradient><linearGradient id="Névtelen_színátmenet_17" x1="462.7" y1="697.19" x2="1005.33" y2="697.19" gradientUnits="userSpaceOnUse"><stop offset="0.3" stop-color="#6f6f6e"/><stop offset="0.35" stop-color="#7c6867"/><stop offset="0.48" stop-color="#a05452"/><stop offset="0.61" stop-color="#bd4542"/><stop offset="0.74" stop-color="#d23a36"/><stop offset="0.87" stop-color="#de332f"/><stop offset="1" stop-color="#e2312d"/></linearGradient></defs><g id="Layer_2" data-name="Layer 2"><g id="Réteg_2" data-name="Réteg 2"><ellipse class="cls-1" cx="691.36" cy="696.37" rx="609.02" ry="613.93"/><path class="cls-2" d="M1382.38,696.37c.65,164.51-59.2,328.58-166.63,453.35-3.66,4.33-7.46,8.53-11.2,12.79-1.77,2.22-4.21,3.84-6.33,5.74-160.1,176.26-408.69,258.91-642.26,210.67C128.91,1293.89-113,832.21,52.39,431.11c122.14-303.76,453-484,774.37-417.26C1147,75.42,1385.54,371,1382.38,696.37Zm-164,0C1220.89,448,1039,221.67,794.56,174.65,624.2,139.3,439.51,195.9,318.2,320.77c-263.89,267.33-175.55,720.58,171,866.94,199.91,85.56,444,32.65,589.3-129.39,3.37-5.62,8.21-10.1,12.33-15.15,81.89-95.76,127.87-220.76,127.54-346.8Z"/><polygon class="cls-3" points="695.01 293.91 548.37 813.59 695.01 667.82 834.36 807.07 695.01 293.91"/><polygon class="cls-4" points="502.31 872.6 361.3 518.5 892.25 794.59 859.42 874.24 502.31 872.6"/><polyline class="cls-5" points="859.42 874.24 1005.33 520.14 462.7 751.29 515.12 871.69 859.42 874.24"/><path class="cls-6" d="M526.51,903.34h5.67l.57,4.75H533c3.67-3.09,8.23-5.76,12.92-5.76,10.47,0,16.07,8.24,16.07,20.95,0,14-8.3,22.2-17.55,22.2-3.71,0-7.51-1.74-11.24-4.77l.19,7.18v13.92h-6.86Zm28.37,20c0-9.07-3-15.16-10.68-15.16-3.43,0-6.89,1.92-10.83,5.61v21.56c3.67,3.12,7.19,4.27,9.86,4.27C549.94,939.62,554.88,933.49,554.88,923.34Z"/><path class="cls-6" d="M569.89,924c0-13.34,8.29-21.63,17.53-21.63,4.71,0,7.8,1.79,11.35,4.76l-.29-7.05V884.19h6.86v60.27h-5.66l-.58-4.85h-.23c-3.15,3.2-7.47,5.87-12.3,5.87C576.45,945.48,569.89,937.66,569.89,924Zm28.59,10V912.46c-3.46-3.13-6.57-4.28-9.88-4.28-6.48,0-11.63,6.34-11.63,15.71,0,9.86,4,15.73,11.12,15.73C591.84,939.62,595.09,937.77,598.48,934Z"/><path class="cls-6" d="M616,924c0-13.73,8.85-21.63,18.78-21.63s18.78,7.9,18.78,21.63-8.85,21.52-18.78,21.52S616,937.57,616,924Zm30.47,0c0-9.43-4.72-15.84-11.69-15.84s-11.69,6.41-11.69,15.84,4.72,15.72,11.69,15.72S646.49,933.38,646.49,924Z"/><path class="cls-6" d="M664.21,903.34h5.66l.58,6h.23c3.55-3.88,7.79-7,12.61-7,6.2,0,9.52,3,11.19,7.83,4.21-4.62,8.43-7.83,13.36-7.83,8.33,0,12.33,5.59,12.33,16.08v26.05h-6.86V919.31c0-7.66-2.38-10.94-7.54-10.94-3.14,0-6.4,2.08-10.15,6.31v29.78h-6.86V919.31c0-7.66-2.38-10.94-7.54-10.94-3,0-6.4,2.08-10.15,6.31v29.78h-6.86Z"/><path class="cls-6" d="M732.06,890.39a4.74,4.74,0,0,1,9.47,0,4.74,4.74,0,0,1-9.47,0Zm1.25,13h6.86v41.12h-6.86Z"/><path class="cls-6" d="M750.66,917.28c0-18.08,6.42-27.79,17-27.79s17,9.74,17,27.79-6.42,28.2-17,28.2S750.66,935.37,750.66,917.28Zm27.42,0c0-15.81-4.21-22.18-10.39-22.18s-10.38,6.37-10.38,22.18,4.21,22.59,10.38,22.59S778.08,933.1,778.08,917.28Z"/><path class="cls-6" d="M792.42,919.54c0-21.7,9.66-30,20.26-30a16.82,16.82,0,0,1,12.81,5.7l-3.81,4.35a11.53,11.53,0,0,0-8.74-4.25c-7.64,0-14.05,6.15-14.05,24.25,0,13.26,4.24,20.46,11.86,20.46,5.22,0,9.25-4.72,9.25-11.83s-3.25-11.46-9.83-11.46c-3.45,0-7.78,2.11-11.43,7.65l-.25-5.51c3.35-4.53,8.32-7.37,12.82-7.37,9.22,0,15.17,5.61,15.17,16.69,0,10.33-7.18,17.31-15.71,17.31C800.29,945.48,792.42,936.86,792.42,919.54Z"/></g></g></svg>